<svg width="64" height="64" viewBox="0 0 64 64" fill="none" xmlns="http://www.w3.org/2000/svg">
    <defs>
        <linearGradient id="faviconGold" x1="10" y1="10" x2="50" y2="50" gradientUnits="userSpaceOnUse">
            <stop offset="0%" stop-color="#FCD34D" />
            <stop offset="50%" stop-color="#F59E0B" />
            <stop offset="100%" stop-color="#B45309" />
        </linearGradient>
        <linearGradient id="rimLight" x1="32" y1="0" x2="32" y2="64" gradientUnits="userSpaceOnUse">
            <stop stop-color="#FFFFFF" stop-opacity="0.8" />
            <stop offset="1" stop-color="#F59E0B" stop-opacity="0.1" />
        </linearGradient>
        <filter id="iconShadow" x="-50%" y="-50%" width="200%" height="200%">
            <feDropShadow dx="0" dy="4" stdDeviation="4" flood-color="#78350F" flood-opacity="0.3"/>
        </filter>
    </defs>
    <rect x="2" y="2" width="60" height="60" rx="16" fill="#0F172A" stroke="url(#rimLight)" stroke-width="0.5"/>
    <g filter="url(#iconShadow)">
        <path d="M22 46V28C22 23 25 19 30 19H32C36 19 39 22 39 26V36L43 40L47 36V24C47 18 43 14 36 14H34C28 14 24 18 20 24V46C20 48 22 46 22 46Z"
              fill="url(#faviconGold)" stroke="white" stroke-width="0.5" stroke-opacity="0.2"/>
        <circle cx="34.5" cy="27.5" r="3.5" fill="#FFFFFF">
             <animate attributeName="opacity" values="1;0.7;1" dur="3s" repeatCount="indefinite" />
        </circle>
        <path d="M22 46V28C22 23 25 19 30 19H32C34 19 35 20 36 21C30 21 24 26 24 32V46H22Z" fill="white" fill-opacity="0.2"/>
    </g>
</svg>
